<svg width="144" height="144" viewBox="0 0 144 144" fill="none" xmlns="http://www.w3.org/2000/svg">
<g filter="url(#filter0_d)">
<path d="M75.8828 81.4702H75.6422C74.3711 81.3632 73.1341 81.0128 72.0025 80.4389C69.5594 79.2823 67.3957 77.6348 65.6541 75.6048C64.3285 74.1123 63.2798 72.4065 62.5548 70.5638C62.1538 69.6264 61.9663 68.6155 62.005 67.6007C62.0487 66.8855 62.3704 66.2133 62.9048 65.7206C63.1828 65.4651 63.4515 65.2035 63.7171 64.9418C63.9233 64.738 64.1138 64.5676 64.3075 64.3821C64.4888 64.1884 64.7095 64.0337 64.9556 63.9279C65.2017 63.8221 65.4678 63.7674 65.7369 63.7674C66.0059 63.7674 66.272 63.8221 66.5181 63.9279C66.7642 64.0337 66.985 64.1884 67.1662 64.3821C67.5442 64.7441 67.9191 65.1122 68.294 65.4833L68.6315 65.8119L69.3813 66.5451C69.588 66.7224 69.7535 66.9405 69.8669 67.1849C69.9804 67.4294 70.039 67.6945 70.039 67.9627C70.039 68.231 69.9804 68.4961 69.8669 68.7406C69.7535 68.985 69.588 69.2031 69.3813 69.3804L69.0407 69.712C68.7439 70.001 68.4502 70.29 68.1503 70.576C68.4355 71.1567 68.7956 71.6995 69.2219 72.1914C70.152 73.344 71.2722 74.3381 72.5367 75.1333C72.6836 75.2215 72.8492 75.3036 73.0304 75.3888L73.1959 75.4679C73.6021 75.0633 74.0145 74.6648 74.4269 74.2662C74.6079 74.0702 74.8293 73.9134 75.0766 73.8061C75.324 73.6988 75.5917 73.6434 75.8625 73.6434C76.1332 73.6434 76.401 73.6988 76.6483 73.8061C76.8956 73.9134 77.117 74.0702 77.298 74.2662C78.0458 74.9862 78.7893 75.7103 79.5287 76.4384C79.7315 76.6164 79.8937 76.8339 80.0047 77.0768C80.1157 77.3197 80.173 77.5826 80.173 77.8484C80.173 78.1143 80.1157 78.3772 80.0047 78.6201C79.8937 78.863 79.7315 79.0805 79.5287 79.2585C79.385 79.3985 79.2382 79.5384 79.0914 79.6783C78.807 79.9491 78.5352 80.2046 78.2884 80.4784C77.9867 80.8055 77.6148 81.0638 77.199 81.2352C76.7833 81.4066 76.3339 81.4868 75.8828 81.4702ZM63.7264 70.141C64.4017 71.8526 65.3775 73.4368 66.6101 74.823C68.239 76.72 70.2621 78.2597 72.5461 79.3407C73.526 79.8521 74.6031 80.1627 75.7109 80.2533C76.0145 80.2884 76.3222 80.2513 76.6078 80.1454C76.8935 80.0394 77.1485 79.8677 77.3512 79.6449C77.6292 79.3407 77.926 79.0577 78.2166 78.7839C78.3572 78.6501 78.4977 78.5162 78.6383 78.3793C78.7269 78.315 78.7988 78.2315 78.8484 78.1354C78.8979 78.0392 78.9237 77.9332 78.9237 77.8256C78.9237 77.7181 78.8979 77.612 78.8484 77.5159C78.7988 77.4198 78.7269 77.3362 78.6383 77.2719C77.901 76.5459 77.1595 75.8238 76.4139 75.1059C76.3491 75.0238 76.2658 74.9574 76.1705 74.9117C76.0752 74.8659 75.9703 74.8421 75.864 74.8421C75.7578 74.8421 75.6529 74.8659 75.5576 74.9117C75.4622 74.9574 75.3789 75.0238 75.3142 75.1059C74.8455 75.5592 74.3769 76.0003 73.9426 76.4505C73.8058 76.604 73.6183 76.7062 73.4125 76.7396C73.2066 76.7729 72.9952 76.7352 72.8148 76.6331C72.7023 76.5722 72.5867 76.5175 72.4742 76.4658C72.2774 76.3714 72.0743 76.2741 71.8744 76.1615C70.493 75.2946 69.2693 74.2099 68.2534 72.952C67.7061 72.3226 67.2567 71.6184 66.9194 70.862C66.8355 70.6921 66.8106 70.5002 66.8483 70.3154C66.8861 70.1305 66.9845 69.9625 67.1287 69.8368C67.4755 69.5112 67.816 69.1796 68.1534 68.845L68.494 68.5103C68.8845 68.127 68.8845 67.7802 68.494 67.3878L67.7504 66.6607L67.4099 66.3291C67.0381 65.961 66.6663 65.5959 66.2914 65.24C66.226 65.1578 66.1422 65.0914 66.0463 65.0457C65.9505 64.9999 65.8452 64.9762 65.7384 64.9762C65.6317 64.9762 65.5264 64.9999 65.4305 65.0457C65.3347 65.0914 65.2508 65.1578 65.1854 65.24C64.9917 65.4225 64.8074 65.605 64.62 65.7876C64.345 66.0583 64.067 66.3291 63.7827 66.5907C63.4642 66.8755 63.2744 67.2714 63.2547 67.692C63.2306 68.5259 63.3882 69.3554 63.7171 70.1258L63.7264 70.141ZM82 71.6773H80.7503C80.747 69.4344 79.8306 67.2844 78.2019 65.6984C76.5732 64.1125 74.3652 63.2201 72.0618 63.2169V62C74.6966 62.0032 77.2225 63.0238 79.0855 64.838C80.9486 66.6521 81.9967 69.1117 82 71.6773ZM78.6727 71.6773H77.423C77.4214 70.2932 76.856 68.9663 75.8509 67.9877C74.8459 67.009 73.4832 66.4585 72.0618 66.4569V65.24C73.8144 65.2424 75.4945 65.9214 76.7337 67.1281C77.9729 68.3348 78.6702 69.9708 78.6727 71.6773Z" fill="#DDA046"/>
</g>
<defs>
<filter id="filter0_d" x="0" y="0" width="144" height="143.472" filterUnits="userSpaceOnUse" color-interpolation-filters="sRGB">
<feFlood flood-opacity="0" result="BackgroundImageFix"/>
<feColorMatrix in="SourceAlpha" type="matrix" values="0 0 0 0 0 0 0 0 0 0 0 0 0 0 0 0 0 0 127 0"/>
<feOffset/>
<feGaussianBlur stdDeviation="31"/>
<feColorMatrix type="matrix" values="0 0 0 0 0.829167 0 0 0 0 0.746636 0 0 0 0 0.533431 0 0 0 1 0"/>
<feBlend mode="lighten" in2="BackgroundImageFix" result="effect1_dropShadow"/>
<feBlend mode="normal" in="SourceGraphic" in2="effect1_dropShadow" result="shape"/>
</filter>
</defs>
</svg>
