<svg width="62" height="63" viewBox="0 0 62 63" fill="none" xmlns="http://www.w3.org/2000/svg">
<g clip-path="url(#clip0)">
<path d="M61.3501 38.997C60.956 38.8404 60.5062 38.9383 60.2134 39.2448L55.8001 43.8838V16.3297H55.8053L60.0161 11.783C60.4035 11.3644 60.378 10.7102 59.9589 10.3228C59.9589 10.3228 59.9584 10.3223 59.958 10.3219L58.4424 8.91131L60.5483 6.63796C60.9352 6.21887 60.9092 5.56515 60.4901 5.17822L55.9434 0.967371C55.5248 0.579965 54.8711 0.605036 54.4837 1.02413L47.1367 8.95719H11.3667C11.3634 6.10487 9.05223 3.79368 6.19991 3.79037H5.16682C2.3145 3.79368 0.00331116 6.10487 0 8.95719V53.3906C0 53.961 0.462616 54.4236 1.03355 54.4236H16.6759L14.5057 57.0295C14.141 57.4685 14.2006 58.1198 14.6391 58.4845L19.4039 62.4518C19.8423 62.817 20.4942 62.7574 20.8593 62.3189L20.8598 62.3184L26.1487 55.9643C26.5139 55.5244 26.7489 54.9903 26.8265 54.4236H45.7611L39.5508 60.9452C39.1577 61.3586 39.1743 62.0128 39.5877 62.4059C39.7798 62.5885 40.0347 62.6907 40.3001 62.6902H60.9664C61.5374 62.6902 62 62.2276 62 61.6571V39.9572C62 39.5343 61.7427 39.154 61.3501 38.997ZM57.7977 11.1269L55.8001 13.2877V11.7679L57.0399 10.4245L57.7977 11.1269ZM53.7335 10.9429V10.9576L44.9944 20.4024L41.9595 17.5946L52.487 6.21745L55.522 9.02531L53.7458 10.9429H53.7335ZM43.0096 21.3797L40.6326 22.0732L41.1402 19.6489L43.0096 21.3797ZM55.2949 3.18395L58.3284 5.9904L56.9245 7.51022L53.8905 4.70094L55.2949 3.18395ZM5.16682 5.857H6.19991C7.91225 5.857 9.30009 7.24485 9.30009 8.95719V48.2507C8.41081 47.5667 7.32144 47.194 6.19991 47.1902H5.16682C4.04482 47.194 2.95592 47.5667 2.06664 48.2507V8.95719C2.06664 7.24485 3.45448 5.857 5.16682 5.857ZM5.16682 49.2568H6.19991C7.91225 49.2568 9.30009 50.6451 9.30009 52.357H2.06664C2.06664 50.6451 3.45448 49.2568 5.16682 49.2568ZM24.5612 54.6427L23.8999 55.4364L20.7236 52.7922L21.3839 51.9975C21.7491 51.559 22.4005 51.4994 22.8389 51.8646C22.8394 51.8646 22.8394 51.8651 22.8399 51.8651L24.4278 53.1839C24.8668 53.5486 24.9269 54.1999 24.5622 54.6389C24.5617 54.6393 24.5617 54.6393 24.5612 54.6398V54.6427ZM19.9332 60.2021L16.7563 57.5579L19.401 54.3801L22.5774 57.0248L19.9332 60.2021ZM26.3923 52.357C26.2206 52.0708 26.0035 51.8149 25.7495 51.5988L24.1615 50.2771C22.8456 49.1816 20.891 49.3599 19.7955 50.6759L18.3935 52.357H11.3667V11.0238H45.2247L39.741 16.9499C39.6625 17.0383 39.6 17.1405 39.557 17.2507C39.5447 17.2805 39.5352 17.3084 39.5248 17.3396C39.5149 17.3704 39.4993 17.4016 39.4917 17.4347L38.2581 23.3328C38.1417 23.8915 38.5002 24.4387 39.0589 24.5551C39.2249 24.5896 39.3966 24.583 39.5589 24.5357L45.3458 22.8494C45.3728 22.8409 45.3955 22.8253 45.421 22.8163C45.4471 22.8068 45.474 22.7936 45.5019 22.7799C45.6178 22.7274 45.7228 22.6531 45.8118 22.5618L53.7335 14.0006V46.0535L47.7299 52.357H26.3923ZM59.9334 60.6236H42.7106L59.9334 42.5404V60.6236Z" fill="#DDA046"/>
<path d="M48.645 57.9193C48.8049 58.3053 49.1819 58.557 49.6001 58.557H56.833C57.404 58.557 57.8666 58.0944 57.8666 57.5239V50.2904C57.8666 49.7195 57.4035 49.2574 56.833 49.2574C56.5592 49.2574 56.2962 49.3661 56.1027 49.5601L48.8692 56.7931C48.5736 57.0887 48.4852 57.5334 48.645 57.9193ZM55.8 52.7847V56.4903H52.0943L55.8 52.7847Z" fill="#DDA046"/>
<path d="M45.4664 39.9573H38.2335V28.5906C38.232 28.3162 38.1228 28.0532 37.9293 27.8588L31.7294 21.6589C31.3259 21.2554 30.6717 21.2554 30.2682 21.6589L24.0683 27.8588C23.8758 28.0537 23.7675 28.3167 23.7665 28.5906V39.9573H16.5336C15.9626 39.9573 15.5 40.4199 15.5 40.9904C15.5 41.5613 15.9626 42.0239 16.5336 42.0239H45.4669C46.0374 42.0239 46.5 41.5613 46.5 40.9904C46.5 40.4199 46.0374 39.9573 45.4664 39.9573ZM31 23.8514L34.7057 27.557H27.2943L31 23.8514ZM25.8332 29.6237H36.1668V39.9573H25.8332V29.6237Z" fill="#DDA046"/>
<path d="M29.9663 17.2238H32.0334V19.2905H29.9663V17.2238Z" fill="#DDA046"/>
<path d="M29.9663 44.0905H32.0334V46.1572H29.9663V44.0905Z" fill="#DDA046"/>
</g>
<defs>
<clipPath id="clip0">
<rect width="62" height="62" fill="white" transform="translate(0 0.692627)"/>
</clipPath>
</defs>
</svg>
