<svg width="60" height="60" viewBox="0 0 60 60" fill="none" xmlns="http://www.w3.org/2000/svg">
<path d="M26.3839 44.3817C26.3839 44.4555 26.3839 44.5476 26.3431 44.599C26.0666 44.9558 25.7375 45.2533 25.3056 45.4113C24.9304 45.5482 24.6316 45.381 24.5526 44.9913C24.521 44.8373 24.5196 44.6753 24.5196 44.5173C24.5183 41.6143 24.5104 35.6621 24.5065 35.5897H22.3644C22.3644 35.67 22.3618 43.9618 22.3671 45.5285C22.3684 45.9524 22.4131 46.3737 22.5896 46.7674C22.7791 47.1939 23.0938 47.4638 23.5625 47.5415C23.9061 47.6007 24.2419 47.5626 24.5684 47.4507C25.2372 47.2203 25.7612 46.7858 26.2233 46.2644C26.2641 46.2183 26.3075 46.1736 26.3852 46.0906V47.3914H28.5325V41.6999C28.5325 39.7277 28.5325 35.5713 28.5325 35.5713L26.3839 35.5766V44.3817Z" fill="url(#paint0_linear)"/>
<path d="M36.5357 36.5127C36.0828 35.5477 35.131 35.2922 34.3055 35.4989C33.8052 35.6253 33.3997 35.9137 33.0666 36.2862C32.956 36.4113 32.8349 36.6536 32.8349 36.6536C32.8349 36.6536 32.8349 33.0896 32.8349 31.386H30.6836V47.3889H32.8349V46.491C32.8349 46.491 32.9876 46.6529 33.0429 46.7121C33.5366 47.248 34.1356 47.5416 34.8742 47.5482C35.7827 47.5574 36.4146 47.1176 36.7016 46.254C36.8346 45.8524 36.878 45.439 36.8794 45.0204C36.882 42.7835 36.882 40.5467 36.878 38.3098C36.878 37.691 36.803 37.0829 36.5357 36.5127ZM34.6636 44.7532C34.6636 44.873 34.6491 44.9941 34.6241 45.1113C34.5253 45.58 34.1685 45.7907 33.663 45.6867C33.3562 45.6235 33.1166 45.447 32.9112 45.2245C32.902 45.214 32.8414 45.1324 32.8414 45.1324V44.9573L32.8362 37.8518C32.8362 37.8518 32.8823 37.7201 32.9836 37.6319C33.2364 37.4081 33.5155 37.2672 33.8644 37.3015C34.162 37.3304 34.3989 37.4673 34.5095 37.7425C34.5925 37.9518 34.6583 38.1849 34.6596 38.4087C34.6702 40.523 34.6662 42.6374 34.6636 44.7532Z" fill="url(#paint1_linear)"/>
<path d="M28.8002 22.5648C29.3019 22.5648 29.7099 22.1568 29.7099 21.6552V15.2368C29.7099 14.7352 29.3017 14.3271 28.8002 14.3271C28.2988 14.3271 27.8906 14.7353 27.8906 15.2368V21.6552C27.8905 22.1566 28.2986 22.5648 28.8002 22.5648Z" fill="url(#paint2_linear)"/>
<path d="M22.3697 31.3872H14.918V33.6805H17.4287V47.3901H19.8538V33.6753H22.3697V31.3872Z" fill="url(#paint3_linear)"/>
<path d="M42.6818 43.1948V44.7128C42.6818 45.2433 42.2526 45.6725 41.7233 45.6725C41.1927 45.6725 40.7635 45.2433 40.7635 44.7128V41.7597H44.8831C44.8831 41.7597 44.9068 39.6993 44.8897 38.7645C44.8831 38.3656 44.8528 37.9614 44.7712 37.5717C44.5579 36.5606 44.0141 35.7983 42.9964 35.4639C42.6976 35.3651 42.3763 35.3138 42.0617 35.294C41.015 35.2269 40.0987 35.5258 39.3825 36.3276C38.7545 37.0293 38.5359 37.8745 38.5346 38.7908C38.5306 40.5432 38.5227 42.2969 38.5399 44.0492C38.5451 44.4955 38.5952 44.9511 38.6965 45.3855C38.9151 46.319 39.4246 47.0523 40.3238 47.4578C40.9808 47.7554 41.6746 47.7698 42.375 47.6671C43.5046 47.5013 44.2748 46.8956 44.6474 45.8042C44.9278 44.9866 44.8949 43.1948 44.8949 43.1948H42.6818ZM40.7635 38.2709C40.7635 37.7417 41.1927 37.3112 41.7233 37.3112C42.2526 37.3112 42.6818 37.7417 42.6818 38.2709V39.9285H40.7635V38.2709Z" fill="url(#paint4_linear)"/>
<path d="M0 0V60H60V0H0ZM33.8009 12.5061H35.9858V21.5668C35.9858 21.6869 35.9954 21.8083 36.0165 21.926C36.0827 22.2993 36.3588 22.4751 36.7184 22.3504C37.1567 22.1988 37.4912 21.8953 37.7748 21.5377C37.8151 21.4866 37.8077 21.3913 37.8077 21.3164V12.5061H40.0086L40.0079 24.3873H37.8065L37.8091 23.1109C37.5657 23.3506 37.358 23.5746 37.1297 23.7757C36.725 24.1323 36.2665 24.3981 35.7303 24.503C34.907 24.6639 34.2058 24.4037 33.9433 23.5511C33.8559 23.2671 33.8031 22.961 33.8009 22.6646V12.5061ZM28.8003 12.2087C30.5413 12.2087 31.9527 13.62 31.9527 15.361V21.5303C31.9527 23.2714 30.5413 24.6827 28.8003 24.6827C27.0593 24.6827 25.6479 23.2714 25.6479 21.5303V15.361C25.6478 13.62 27.0591 12.2087 28.8003 12.2087ZM20.3203 8.30358C20.3203 8.30358 21.3215 12.5562 21.7994 14.5707H21.8002C22.2781 12.5562 23.2794 8.30358 23.2794 8.30358H25.7847C25.7847 8.30358 23.8599 14.6872 22.9991 17.5342C22.968 17.637 22.9539 17.7489 22.9539 17.8567L22.955 24.3848H20.6448L20.6457 17.8567C20.6457 17.7489 20.6315 17.6371 20.6006 17.5342C19.7398 14.6872 17.815 8.30358 17.815 8.30358H20.3203ZM47.8676 46.1937C47.8676 49.1138 45.5346 51.4995 42.6158 51.5613C34.2069 51.7417 25.794 51.7417 17.3838 51.5613C14.4663 51.4995 12.1333 49.1138 12.1333 46.1937V33.0596C12.1333 30.1408 14.4663 27.7552 17.3838 27.6933C25.794 27.5129 34.2069 27.5129 42.6158 27.6933C45.5346 27.7552 47.8676 30.1408 47.8676 33.0596V46.1937Z" fill="url(#paint5_linear)"/>
<defs>
<linearGradient id="paint0_linear" x1="25.4482" y1="35.5713" x2="25.4482" y2="47.5692" gradientUnits="userSpaceOnUse">
<stop stop-color="#E32828"/>
<stop offset="1" stop-color="#AE0000"/>
</linearGradient>
<linearGradient id="paint1_linear" x1="33.7824" y1="31.386" x2="33.7824" y2="47.5483" gradientUnits="userSpaceOnUse">
<stop stop-color="#E32828"/>
<stop offset="1" stop-color="#AE0000"/>
</linearGradient>
<linearGradient id="paint2_linear" x1="28.8002" y1="14.3271" x2="28.8002" y2="22.5648" gradientUnits="userSpaceOnUse">
<stop stop-color="#E32828"/>
<stop offset="1" stop-color="#AE0000"/>
</linearGradient>
<linearGradient id="paint3_linear" x1="18.6439" y1="31.3872" x2="18.6439" y2="47.3901" gradientUnits="userSpaceOnUse">
<stop stop-color="#E32828"/>
<stop offset="1" stop-color="#AE0000"/>
</linearGradient>
<linearGradient id="paint4_linear" x1="41.7127" y1="35.2849" x2="41.7127" y2="47.7248" gradientUnits="userSpaceOnUse">
<stop stop-color="#E32828"/>
<stop offset="1" stop-color="#AE0000"/>
</linearGradient>
<linearGradient id="paint5_linear" x1="30" y1="0" x2="30" y2="60" gradientUnits="userSpaceOnUse">
<stop stop-color="#E32828"/>
<stop offset="1" stop-color="#AE0000"/>
</linearGradient>
</defs>
</svg>
