<svg width="144" height="144" viewBox="0 0 144 144" fill="none" xmlns="http://www.w3.org/2000/svg">
<g filter="url(#filter0_d)">
<path d="M81.5283 66.4243C74.7425 65.0756 75.1818 65.146 75.0281 65.1719C74.9789 65.1801 74.3767 65.3011 72.9729 65.5819C72.3844 63.8848 70.7698 62.6631 68.875 62.6631C66.9784 62.6631 65.3626 63.8871 64.7754 65.5867L62.7002 65.1743C62.3384 65.1026 62 65.3791 62 65.749V79.499C62 79.7786 62.1975 80.0192 62.4717 80.0737C69.2002 81.4111 68.7596 81.3247 68.8043 81.3302C68.9457 81.3475 68.5085 81.4199 75.1254 80.0965L81.2998 81.3237C81.6618 81.3955 82 81.1186 82 80.749V66.999C82 66.7195 81.8025 66.4788 81.5283 66.4243ZM68.875 63.835C70.6196 63.835 72.0391 65.2543 72.0391 66.999C72.0391 68.471 69.6837 72.2075 68.875 73.4439C68.0672 72.2089 65.7109 68.4713 65.7109 66.999C65.7109 65.2543 67.1304 63.835 68.875 63.835ZM63.1719 66.4628L64.5473 66.7361C64.542 66.8231 64.5391 66.9107 64.5391 66.999C64.5391 67.9761 65.1782 69.5529 66.4932 71.8196C67.261 73.1432 68.0179 74.2796 68.2891 74.6798V80.0351L63.1719 79.018V66.4628ZM69.4609 74.6798C69.7321 74.2796 70.489 73.1432 71.2568 71.8196C72.5718 69.5529 73.2109 67.9761 73.2109 66.999C73.2109 66.909 73.2079 66.8197 73.2024 66.7311L74.5391 66.4637V79.0187L69.4609 80.0343V74.6798ZM80.8281 80.0352L75.7109 79.0181V66.4629L80.8281 67.4799V80.0352Z" fill="#DDA046"/>
<path d="M68.875 68.835C69.8873 68.835 70.7109 68.0114 70.7109 66.999C70.7109 65.9867 69.8873 65.1631 68.875 65.1631C67.8627 65.1631 67.0391 65.9867 67.0391 66.999C67.0391 68.0114 67.8627 68.835 68.875 68.835ZM68.875 66.335C69.2412 66.335 69.5391 66.6329 69.5391 66.999C69.5391 67.3652 69.2412 67.6631 68.875 67.6631C68.5088 67.6631 68.2109 67.3652 68.2109 66.999C68.2109 66.6329 68.5088 66.335 68.875 66.335Z" fill="#DDA046"/>
</g>
<defs>
<filter id="filter0_d" x="0" y="0" width="144" height="144" filterUnits="userSpaceOnUse" color-interpolation-filters="sRGB">
<feFlood flood-opacity="0" result="BackgroundImageFix"/>
<feColorMatrix in="SourceAlpha" type="matrix" values="0 0 0 0 0 0 0 0 0 0 0 0 0 0 0 0 0 0 127 0"/>
<feOffset/>
<feGaussianBlur stdDeviation="31"/>
<feColorMatrix type="matrix" values="0 0 0 0 0.829167 0 0 0 0 0.746636 0 0 0 0 0.533431 0 0 0 1 0"/>
<feBlend mode="lighten" in2="BackgroundImageFix" result="effect1_dropShadow"/>
<feBlend mode="normal" in="SourceGraphic" in2="effect1_dropShadow" result="shape"/>
</filter>
</defs>
</svg>
