<svg width="48" height="48" viewBox="0 0 48 48" fill="none" xmlns="http://www.w3.org/2000/svg">
<g clip-path="url(#clip0)">
<path d="M47.1193 1.05339C47.0342 0.803958 46.8813 0.583181 46.6777 0.415838C46.4741 0.248494 46.2279 0.141208 45.9667 0.10602C45.6509 0.0681249 38.2235 -0.841349 34.8477 3.06181C32.0214 6.33655 33.1551 11.645 33.6825 13.5208C33.0225 14.525 31.4025 16.846 28.7688 20.026C29.912 17.9987 30.8688 15.4092 30.2656 12.9144C29.0404 7.86181 22.0551 5.71444 21.7393 5.62602C21.4902 5.55046 21.225 5.54528 20.9731 5.61104C20.7212 5.6768 20.4924 5.81095 20.312 5.99865C20.0941 6.22602 14.9972 11.6829 16.2067 16.6944C17.4162 21.706 24.4172 23.8944 24.733 23.9829C24.8651 24.0228 25.0024 24.0431 25.1404 24.0429C25.1866 24.0461 25.2331 24.0461 25.2793 24.0429C23.2077 26.326 20.6088 29.0102 17.4856 31.9376C18.572 30.0871 19.4183 27.8071 19.0077 25.546C18.0793 20.4302 11.2204 17.885 10.9267 17.7776C10.6791 17.6906 10.4121 17.6741 10.1557 17.7299C9.8992 17.7856 9.66324 17.9115 9.47406 18.0934C9.24353 18.3113 3.83722 23.4618 4.75932 28.5365C5.61827 33.2734 11.5551 35.7997 12.6541 36.2387C8.79927 39.5099 4.77926 42.5813 0.60985 45.4408C0.362552 45.6106 0.176243 45.8552 0.0782982 46.1388C-0.0196463 46.4224 -0.0240617 46.7299 0.0657008 47.0161C0.155463 47.3024 0.334671 47.5523 0.576991 47.7291C0.819311 47.906 1.11197 48.0004 1.41195 47.9987C1.69749 47.999 1.97629 47.9119 2.2109 47.7492C6.51504 44.793 10.6618 41.614 14.6341 38.225C14.6465 38.282 14.6634 38.3379 14.6846 38.3923C14.792 38.6829 17.353 45.4976 22.5035 46.4165C22.8985 46.4882 23.299 46.5241 23.7004 46.5239C28.3898 46.5239 32.8109 41.945 33.013 41.7365C33.1959 41.5486 33.3225 41.3132 33.3783 41.057C33.4341 40.8008 33.417 40.534 33.3288 40.2871C33.2214 39.9965 30.6572 33.1818 25.5067 32.2597C23.713 31.9439 21.9098 32.3955 20.3151 33.1313C22.8414 30.7439 24.9951 28.5239 26.8014 26.5629C27.5877 28.1418 30.3951 33.1187 34.8509 33.6523C35.115 33.6837 35.3807 33.6995 35.6467 33.6997C40.4909 33.6997 44.8772 28.5997 45.0698 28.3723C45.2393 28.1728 45.3496 27.9298 45.3881 27.6708C45.4266 27.4119 45.3918 27.1473 45.2877 26.9071C45.1646 26.626 42.2088 19.9597 37.0141 19.3471C35.293 19.1418 33.6067 19.6344 32.1162 20.3892C34.0551 17.9671 35.3183 16.1639 35.953 15.2229C36.3098 15.245 36.7583 15.2639 37.2698 15.2639C39.7962 15.2639 43.9014 14.8123 46.1688 12.1881C49.5793 8.24391 47.2204 1.34391 47.1193 1.05339ZM12.9825 33.2892C11.1067 32.4271 7.98985 30.5102 7.53511 28.006C7.08038 25.5018 9.34143 22.3218 10.7877 20.7429C12.6604 21.5987 15.7898 23.5123 16.232 26.0292C16.6741 28.546 14.4288 31.7039 12.9825 33.2892ZM24.9983 35.0229C27.5246 35.4744 29.4509 38.5692 30.3193 40.4292C28.8667 41.7365 26.132 43.7165 23.713 43.7165C23.4759 43.7171 23.2392 43.697 23.0056 43.6565C20.4793 43.205 18.553 40.1071 17.6846 38.2502C19.2635 36.8102 22.4214 34.5618 24.9983 35.0229ZM24.7014 21.0081C22.7814 20.2597 19.5604 18.5323 18.9477 16.0439C18.3351 13.5555 20.4288 10.2713 21.7898 8.60707C23.6846 9.35549 26.9214 11.086 27.5214 13.5776C28.1214 16.0692 26.0498 19.3439 24.7014 21.0081ZM36.6635 22.1355C39.2088 22.4513 41.3183 25.4165 42.2909 27.2229C40.7814 28.7513 37.7719 31.1765 35.1793 30.8671C32.6372 30.5513 30.5277 27.5829 29.552 25.7765C31.0646 24.2481 34.0741 21.8229 36.6635 22.1355ZM44.0183 10.3597C42.3162 12.3144 38.4509 12.5513 36.3162 12.4376C35.8077 10.4481 35.3341 6.83234 37.0014 4.90286C38.6688 2.97339 42.5562 2.71128 44.7035 2.84076C45.2151 4.81444 45.6856 8.43023 44.0183 10.3597Z" fill="#DDA046"/>
</g>
<defs>
<clipPath id="clip0">
<rect width="48" height="48" fill="white"/>
</clipPath>
</defs>
</svg>
