<svg width="53" height="55" viewBox="0 0 53 55" fill="none" xmlns="http://www.w3.org/2000/svg">
<g clip-path="url(#clip0)">
<path d="M4.76172 27.6922C4.76172 39.9051 14.5136 49.8406 26.5 49.8406C38.4864 49.8406 48.2383 39.9051 48.2383 27.6922C48.2383 15.4796 38.4864 5.54375 26.5 5.54375C14.5136 5.54375 4.76172 15.4796 4.76172 27.6922ZM46.168 27.6922C46.168 38.7421 37.3449 47.7312 26.5 47.7312C15.6551 47.7312 6.83203 38.7421 6.83203 27.6922C6.83203 16.6427 15.6551 7.65312 26.5 7.65312C37.3449 7.65312 46.168 16.6427 46.168 27.6922Z" fill="#DDA046"/>
<path d="M46.9734 10.5486C43.1405 5.8017 37.7945 2.5021 31.9208 1.25789C31.3624 1.14007 30.8129 1.5055 30.6964 2.0761C30.58 2.64629 30.9398 3.20453 31.4995 3.32319C42.758 5.70818 50.9297 15.9568 50.9297 27.6922C50.9297 41.4172 39.9708 52.5829 26.5 52.5829C13.0292 52.5829 2.07031 41.4172 2.07031 27.6922C2.07031 15.6391 10.5056 5.33822 22.1281 3.19918C22.6905 3.09577 23.0642 2.547 22.9627 1.97393C22.8608 1.40085 22.3226 1.01977 21.7601 1.12359C15.7275 2.23348 10.2157 5.48818 6.23965 10.2878C2.21588 15.1456 0 21.3266 0 27.6922C0 34.9045 2.75651 41.6846 7.76165 46.7846C12.7668 51.8841 19.4217 54.6922 26.5 54.6922C33.5783 54.6922 40.2332 51.8837 45.2383 46.7846C50.2435 41.6846 53 34.9045 53 27.6922C53 21.4498 50.8597 15.361 46.9734 10.5486Z" fill="#DDA046"/>
<path d="M26.6258 2.802L26.6986 2.80241H26.7075C27.2748 2.80241 27.7374 2.33604 27.7423 1.75679C27.7471 1.17424 27.2874 0.697983 26.716 0.693039L26.6432 0.692627C26.64 0.692627 26.6371 0.692627 26.6343 0.692627C26.0666 0.692627 25.604 1.159 25.5992 1.73866C25.5947 2.32121 26.0541 2.79706 26.6258 2.802Z" fill="#DDA046"/>
<path d="M25.478 10.7826C25.478 11.0599 25.5888 11.3309 25.7813 11.5283C25.975 11.7244 26.2411 11.8373 26.5132 11.8373C26.7865 11.8373 27.0526 11.7244 27.2451 11.5283C27.4388 11.3309 27.5496 11.0599 27.5496 10.7826C27.5496 10.5049 27.4388 10.233 27.2451 10.0369C27.0534 9.84079 26.7865 9.72791 26.5132 9.72791C26.2411 9.72791 25.9742 9.83955 25.7813 10.0369C25.5888 10.233 25.478 10.5041 25.478 10.7826Z" fill="#DDA046"/>
<path d="M26.4868 43.5475C26.2135 43.5475 25.9462 43.6604 25.7549 43.8565C25.5612 44.0526 25.4517 44.325 25.4517 44.6022C25.4517 44.8807 25.5612 45.1518 25.7549 45.3479C25.9474 45.5448 26.2135 45.6569 26.4868 45.6569C26.7589 45.6569 27.025 45.5448 27.2183 45.3479C27.4112 45.1518 27.522 44.8795 27.522 44.6022C27.522 44.325 27.4112 44.0539 27.2183 43.8565C27.0258 43.6604 26.7589 43.5475 26.4868 43.5475Z" fill="#DDA046"/>
<path d="M43.0967 28.7609C43.3692 28.7609 43.6361 28.6488 43.8286 28.4527C44.0223 28.2554 44.1318 27.9843 44.1318 27.7062C44.1318 27.4285 44.0223 27.1566 43.8286 26.9605C43.6361 26.7644 43.37 26.6523 43.0967 26.6523C42.8245 26.6523 42.5577 26.7644 42.3652 26.9605C42.1723 27.1574 42.0615 27.4285 42.0615 27.7062C42.0615 27.9834 42.1723 28.2554 42.3652 28.4527C42.5585 28.6488 42.8245 28.7609 43.0967 28.7609Z" fill="#DDA046"/>
<path d="M9.90332 26.6239C9.62957 26.6239 9.36391 26.736 9.17143 26.9321C8.97775 27.1282 8.86816 27.4001 8.86816 27.6786C8.86816 27.9559 8.97775 28.2282 9.17143 28.4243C9.36391 28.6204 9.62997 28.7333 9.90332 28.7333C10.1755 28.7333 10.4423 28.6204 10.6348 28.4243C10.8273 28.2282 10.9385 27.9559 10.9385 27.6786C10.9385 27.4001 10.8277 27.1282 10.6348 26.9321C10.4423 26.7356 10.1755 26.6239 9.90332 26.6239Z" fill="#DDA046"/>
<path d="M18.2134 11.986C17.9412 11.986 17.674 12.0989 17.4815 12.295C17.289 12.4911 17.1782 12.7634 17.1782 13.0407C17.1782 13.318 17.289 13.5903 17.4815 13.7864C17.674 13.9825 17.9412 14.0954 18.2134 14.0954C18.4855 14.0954 18.7528 13.9825 18.9453 13.7864C19.1377 13.5903 19.2485 13.318 19.2485 13.0407C19.2485 12.7634 19.1377 12.4911 18.9453 12.295C18.7528 12.0989 18.4855 11.986 18.2134 11.986Z" fill="#DDA046"/>
<path d="M34.7866 41.2894C34.5145 41.2894 34.2472 41.4023 34.0547 41.5984C33.8623 41.7945 33.7515 42.0664 33.7515 42.3441C33.7515 42.6214 33.8623 42.8937 34.0547 43.0898C34.2472 43.2859 34.5145 43.3988 34.7866 43.3988C35.0588 43.3988 35.326 43.2859 35.5185 43.0898C35.711 42.8937 35.8218 42.6214 35.8218 42.3441C35.8218 42.0664 35.711 41.7945 35.5185 41.5984C35.326 41.4023 35.0588 41.2894 34.7866 41.2894Z" fill="#DDA046"/>
<path d="M40.8804 20.3044C41.1525 20.3044 41.4194 20.1915 41.6119 19.995C41.8043 19.7989 41.9155 19.527 41.9155 19.2497C41.9155 18.972 41.8047 18.7001 41.6119 18.504C41.4194 18.3079 41.1525 18.195 40.8804 18.195C40.6078 18.195 40.341 18.3075 40.1485 18.504C39.956 18.7001 39.8452 18.972 39.8452 19.2497C39.8452 19.527 39.9556 19.7989 40.1485 19.995C40.341 20.1915 40.6078 20.3044 40.8804 20.3044Z" fill="#DDA046"/>
<path d="M12.1196 35.0804C11.8475 35.0804 11.5806 35.1933 11.3881 35.3894C11.1953 35.5855 11.0845 35.8578 11.0845 36.1351C11.0845 36.4124 11.1953 36.6847 11.3881 36.8808C11.5806 37.0769 11.8475 37.1898 12.1196 37.1898C12.3922 37.1898 12.659 37.0769 12.8515 36.8808C13.044 36.6847 13.1548 36.4124 13.1548 36.1351C13.1548 35.8578 13.0444 35.5855 12.8515 35.3894C12.659 35.1933 12.393 35.0804 12.1196 35.0804Z" fill="#DDA046"/>
<path d="M12.1333 18.1708C11.8608 18.1708 11.5939 18.2833 11.4014 18.4798C11.2089 18.6759 11.0981 18.947 11.0981 19.2255C11.0981 19.5028 11.2085 19.7739 11.4014 19.9708C11.5951 20.1669 11.8608 20.2802 12.1333 20.2802C12.4066 20.2802 12.6727 20.1673 12.8648 19.9708C13.0585 19.7739 13.1685 19.5028 13.1685 19.2255C13.1685 18.947 13.0585 18.6759 12.8648 18.4798C12.6727 18.2837 12.4066 18.1708 12.1333 18.1708Z" fill="#DDA046"/>
<path d="M40.8667 37.2141C41.1392 37.2141 41.4061 37.1012 41.5986 36.9051C41.7911 36.709 41.9019 36.4367 41.9019 36.1594C41.9019 35.8821 41.7911 35.6098 41.5986 35.4137C41.4061 35.2176 41.1392 35.1047 40.8667 35.1047C40.5934 35.1047 40.3273 35.2176 40.1348 35.4137C39.9415 35.6098 39.8315 35.8821 39.8315 36.1594C39.8315 36.4367 39.9415 36.709 40.1348 36.9051C40.3265 37.1012 40.5934 37.2141 40.8667 37.2141Z" fill="#DDA046"/>
<path d="M34.8101 14.109C35.0826 14.109 35.3495 13.997 35.5419 13.8008C35.7356 13.6039 35.8452 13.3316 35.8452 13.0543C35.8452 12.7771 35.7356 12.5047 35.5419 12.3086C35.3495 12.1125 35.0826 11.9996 34.8101 11.9996C34.5379 11.9996 34.271 12.1125 34.0786 12.3086C33.8861 12.5047 33.7749 12.7771 33.7749 13.0543C33.7749 13.3316 33.8857 13.6039 34.0786 13.8008C34.271 13.9974 34.5379 14.109 34.8101 14.109Z" fill="#DDA046"/>
<path d="M18.1895 41.2759C17.9161 41.2759 17.6504 41.3875 17.4576 41.5849C17.2651 41.781 17.1543 42.052 17.1543 42.3306C17.1543 42.6078 17.2651 42.8797 17.4576 43.0758C17.6504 43.2724 17.9165 43.3852 18.1895 43.3852C18.462 43.3852 18.7289 43.2724 18.9213 43.0758C19.1138 42.8789 19.2246 42.6078 19.2246 42.3306C19.2246 42.0529 19.1138 41.781 18.9213 41.5849C18.7289 41.3875 18.462 41.2759 18.1895 41.2759Z" fill="#DDA046"/>
<path d="M35.0221 17.5314L28.3781 24.3012C27.8229 23.9806 27.1824 23.7969 26.5002 23.7969C25.8213 23.7969 25.184 23.979 24.6309 24.2962L21.4546 21.0601C21.0503 20.6485 20.3952 20.6485 19.9905 21.0601C19.5865 21.4721 19.5865 22.1399 19.9905 22.5519L23.1667 25.7876C22.8553 26.3512 22.677 27.0009 22.677 27.6922C22.677 29.8403 24.3919 31.588 26.5002 31.588C28.6085 31.588 30.3234 29.8403 30.3234 27.6922C30.3234 27.0042 30.1467 26.3578 29.8382 25.7963L36.4862 19.0232C36.8902 18.6112 36.8902 17.9434 36.4862 17.5314C36.0819 17.1198 35.4264 17.1198 35.0221 17.5314ZM26.5002 29.4786C25.5334 29.4786 24.7473 28.6773 24.7473 27.6922C24.7473 26.7076 25.5334 25.9063 26.5002 25.9063C27.467 25.9063 28.2531 26.7076 28.2531 27.6922C28.2531 28.6773 27.467 29.4786 26.5002 29.4786Z" fill="#DDA046"/>
<path d="M31.0106 36.5516H22.0156C21.4439 36.5516 20.9805 37.0241 20.9805 37.6062C20.9805 38.1888 21.4439 38.6609 22.0156 38.6609H31.0106C31.5823 38.6609 32.0457 38.1888 32.0457 37.6062C32.0457 37.0241 31.5823 36.5516 31.0106 36.5516Z" fill="#DDA046"/>
</g>
<defs>
<clipPath id="clip0">
<rect width="53" height="54" fill="white" transform="translate(0 0.692627)"/>
</clipPath>
</defs>
</svg>
