<svg width="56" height="57" viewBox="0 0 56 57" fill="none" xmlns="http://www.w3.org/2000/svg">
<g clip-path="url(#clip0)">
<path d="M50.5312 5.50513H45.3177V3.97388C45.3177 2.1646 43.8457 0.692627 42.0364 0.692627C40.2271 0.692627 38.7552 2.1646 38.7552 3.97388V5.50513H20.3802V3.97388C20.3802 2.1646 18.9082 0.692627 17.0989 0.692627C15.2896 0.692627 13.8177 2.1646 13.8177 3.97388V5.5456C13.7247 5.51989 13.6272 5.50513 13.5261 5.50513H9.16814C6.15267 5.50513 3.69939 7.95841 3.69939 10.9739V29.604C3.69939 30.2081 4.18917 30.6978 4.79314 30.6978C5.39711 30.6978 5.88689 30.2081 5.88689 29.604V16.7708H45.3177C45.9216 16.7708 46.4114 16.2811 46.4114 15.677C46.4114 15.0729 45.9216 14.5833 45.3177 14.5833H5.88689V10.9739C5.88689 9.1646 7.35886 7.69263 9.16814 7.69263H13.5261C13.6272 7.69263 13.7247 7.67775 13.8177 7.65216V9.05981C13.8177 10.8691 15.2896 12.3411 17.0989 12.3411C18.9082 12.3411 20.3802 10.8691 20.3802 9.05981V7.69263H38.7552V9.05981C38.7552 10.8691 40.2271 12.3411 42.0364 12.3411C43.8457 12.3411 45.3177 10.8691 45.3177 9.05981V7.69263H50.5312C52.3405 7.69263 53.8125 9.1646 53.8125 10.9739V52.5357C53.8125 53.6216 52.9291 54.5051 51.8431 54.5051C50.7571 54.5051 49.8737 53.6216 49.8737 52.5357V49.7063C49.8737 49.1022 49.3839 48.6125 48.7799 48.6125H36.0573C35.4534 48.6125 34.9636 49.1022 34.9636 49.7063C34.9636 50.3104 35.4534 50.8 36.0573 50.8H47.6862V52.5357C47.6862 53.2479 47.8664 53.9185 48.1833 54.5051H4.15625C3.0707 54.5051 2.1875 53.6219 2.1875 52.5364V50.8H26.6684C27.2723 50.8 27.7621 50.3104 27.7621 49.7063C27.7621 49.1022 27.2723 48.6125 26.6684 48.6125H15.74C17.6513 46.9666 18.8649 44.5319 18.8649 41.8176C18.8649 36.8722 14.8415 32.8489 9.89614 32.8489C4.95075 32.8489 0.927391 36.8722 0.927391 41.8176C0.927391 44.5319 2.14102 46.9666 4.05223 48.6125H1.09375C0.489781 48.6125 0 49.1022 0 49.7063V52.5364C0 54.8281 1.86452 56.6926 4.15625 56.6926H51.8431C54.1352 56.6926 56 54.8279 56 52.5357V10.9739C56 7.95841 53.5467 5.50513 50.5312 5.50513ZM18.1927 9.05981C18.1927 9.66291 17.702 10.1536 17.0989 10.1536C16.4958 10.1536 16.0052 9.66291 16.0052 9.05981V3.97388C16.0052 3.37078 16.4958 2.88013 17.0989 2.88013C17.702 2.88013 18.1927 3.37078 18.1927 3.97388V9.05981ZM43.1302 9.05981C43.1302 9.66291 42.6395 10.1536 42.0364 10.1536C41.4333 10.1536 40.9427 9.66291 40.9427 9.05981V3.97388C40.9427 3.37078 41.4333 2.88013 42.0364 2.88013C42.6395 2.88013 43.1302 3.37078 43.1302 3.97388V9.05981ZM3.11489 41.8176C3.11489 38.0784 6.15694 35.0364 9.89614 35.0364C13.6353 35.0364 16.6774 38.0784 16.6774 41.8176C16.6774 45.5568 13.6353 48.5989 9.89614 48.5989C6.15694 48.5989 3.11489 45.5568 3.11489 41.8176Z" fill="#DDA046"/>
<path d="M51.2214 14.9037C51.0181 14.7003 50.7359 14.5833 50.4482 14.5833C50.1605 14.5833 49.8784 14.7003 49.675 14.9037C49.4715 15.1072 49.3545 15.3893 49.3545 15.677C49.3545 15.9647 49.4714 16.2468 49.675 16.4503C49.8785 16.6537 50.1605 16.7708 50.4482 16.7708C50.7359 16.7708 51.0181 16.6537 51.2214 16.4503C51.4249 16.2468 51.542 15.9647 51.542 15.677C51.542 15.3893 51.425 15.1072 51.2214 14.9037Z" fill="#DDA046"/>
<path d="M32.6648 48.9325C32.4614 48.729 32.1793 48.6131 31.8916 48.6131C31.6039 48.6131 31.3218 48.729 31.1183 48.9325C30.9149 49.137 30.7979 49.4181 30.7979 49.7058C30.7979 49.9945 30.9148 50.2756 31.1183 50.4801C31.3218 50.6836 31.6039 50.7995 31.8916 50.7995C32.1793 50.7995 32.4614 50.6836 32.6648 50.4801C32.8682 50.2756 32.9854 49.9934 32.9854 49.7058C32.9854 49.4181 32.8683 49.137 32.6648 48.9325Z" fill="#DDA046"/>
<path d="M24.7456 33.9426C22.4539 33.9426 20.5894 35.8071 20.5894 38.0989C20.5894 40.3906 22.4539 42.2551 24.7456 42.2551C27.0373 42.2551 28.9019 40.3906 28.9019 38.0989C28.9019 35.8071 27.0373 33.9426 24.7456 33.9426ZM24.7456 40.0676C23.6601 40.0676 22.7769 39.1844 22.7769 38.0989C22.7769 37.0133 23.6601 36.1301 24.7456 36.1301C25.8312 36.1301 26.7144 37.0133 26.7144 38.0989C26.7144 39.1844 25.8312 40.0676 24.7456 40.0676Z" fill="#DDA046"/>
<path d="M34.9536 33.9426C32.6619 33.9426 30.7974 35.8071 30.7974 38.0989C30.7974 40.3906 32.6619 42.2551 34.9536 42.2551C37.2453 42.2551 39.1099 40.3906 39.1099 38.0989C39.1099 35.8071 37.2453 33.9426 34.9536 33.9426ZM34.9536 40.0676C33.8681 40.0676 32.9849 39.1844 32.9849 38.0989C32.9849 37.0133 33.8681 36.1301 34.9536 36.1301C36.0392 36.1301 36.9224 37.0133 36.9224 38.0989C36.9224 39.1844 36.0392 40.0676 34.9536 40.0676Z" fill="#DDA046"/>
<path d="M45.1621 33.9426C42.8704 33.9426 41.0059 35.8071 41.0059 38.0989C41.0059 40.3906 42.8704 42.2551 45.1621 42.2551C47.4538 42.2551 49.3184 40.3906 49.3184 38.0989C49.3184 35.8071 47.4538 33.9426 45.1621 33.9426ZM45.1621 40.0676C44.0766 40.0676 43.1934 39.1844 43.1934 38.0989C43.1934 37.0133 44.0766 36.1301 45.1621 36.1301C46.2477 36.1301 47.1309 37.0133 47.1309 38.0989C47.1309 39.1844 46.2477 40.0676 45.1621 40.0676Z" fill="#DDA046"/>
<path d="M14.5371 22.5676C12.2454 22.5676 10.3809 24.4321 10.3809 26.7239C10.3809 29.0156 12.2454 30.8801 14.5371 30.8801C16.8288 30.8801 18.6934 29.0156 18.6934 26.7239C18.6934 24.4321 16.8288 22.5676 14.5371 22.5676ZM14.5371 28.6926C13.4516 28.6926 12.5684 27.8094 12.5684 26.7239C12.5684 25.6383 13.4516 24.7551 14.5371 24.7551C15.6227 24.7551 16.5059 25.6383 16.5059 26.7239C16.5059 27.8094 15.6227 28.6926 14.5371 28.6926Z" fill="#DDA046"/>
<path d="M34.9536 22.5676C32.6619 22.5676 30.7974 24.4321 30.7974 26.7239C30.7974 29.0156 32.6619 30.8801 34.9536 30.8801C37.2453 30.8801 39.1099 29.0156 39.1099 26.7239C39.1099 24.4321 37.2453 22.5676 34.9536 22.5676ZM34.9536 28.6926C33.8681 28.6926 32.9849 27.8094 32.9849 26.7239C32.9849 25.6383 33.8681 24.7551 34.9536 24.7551C36.0392 24.7551 36.9224 25.6383 36.9224 26.7239C36.9224 27.8094 36.0392 28.6926 34.9536 28.6926Z" fill="#DDA046"/>
<path d="M45.1621 22.5676C42.8704 22.5676 41.0059 24.4321 41.0059 26.7239C41.0059 29.0156 42.8704 30.8801 45.1621 30.8801C47.4538 30.8801 49.3184 29.0156 49.3184 26.7239C49.3184 24.4321 47.4538 22.5676 45.1621 22.5676ZM45.1621 28.6926C44.0766 28.6926 43.1934 27.8094 43.1934 26.7239C43.1934 25.6383 44.0766 24.7551 45.1621 24.7551C46.2477 24.7551 47.1309 25.6383 47.1309 26.7239C47.1309 27.8094 46.2477 28.6926 45.1621 28.6926Z" fill="#DDA046"/>
<path d="M24.7456 22.5676C22.4539 22.5676 20.5894 24.4321 20.5894 26.7239C20.5894 29.0156 22.4539 30.8801 24.7456 30.8801C27.0373 30.8801 28.9019 29.0156 28.9019 26.7239C28.9019 24.4321 27.0373 22.5676 24.7456 22.5676ZM24.7456 28.6926C23.6601 28.6926 22.7769 27.8094 22.7769 26.7239C22.7769 25.6383 23.6601 24.7551 24.7456 24.7551C25.8312 24.7551 26.7144 25.6383 26.7144 26.7239C26.7144 27.8094 25.8312 28.6926 24.7456 28.6926Z" fill="#DDA046"/>
<path d="M13.7929 39.1521C13.3656 38.725 12.6733 38.725 12.246 39.1521L8.68406 42.7141L7.46683 41.4969C7.03961 41.0698 6.34727 41.0698 5.91994 41.4969C5.49283 41.924 5.49283 42.6166 5.91994 43.0438L7.91067 45.0343C8.11586 45.2394 8.394 45.3547 8.68406 45.3547C8.97412 45.3547 9.25227 45.2394 9.45745 45.0343L13.7929 40.6989C14.22 40.2718 14.22 39.5792 13.7929 39.1521Z" fill="#DDA046"/>
</g>
<defs>
<clipPath id="clip0">
<rect width="56" height="56" fill="white" transform="translate(0 0.692627)"/>
</clipPath>
</defs>
</svg>
