<svg width="54" height="55" viewBox="0 0 54 55" fill="none" xmlns="http://www.w3.org/2000/svg">
<g clip-path="url(#clip0)">
<path d="M51.2998 33.0935H43.1998V19.5936H51.2998C51.7968 19.5936 52.1998 19.1906 52.1998 18.6936V14.2566L53.9908 1.72143C54.0613 1.22947 53.7198 0.773284 53.2277 0.702747C53.1853 0.696672 53.1425 0.693634 53.0998 0.693634H27.8999C27.4029 0.693522 26.9999 1.09649 26.9998 1.59352C26.9998 1.63627 27.0028 1.67902 27.0089 1.72143L28.7999 14.2566V18.6936C28.7999 19.1906 29.2029 19.5936 29.6999 19.5936H37.7998V33.0935H36.8998C35.4087 33.0935 34.1999 34.3023 34.1999 35.7935C34.1999 37.2847 35.4087 38.4935 36.8998 38.4935H37.7998V40.2935H31.4999L32.3396 27.6935H33.2999C33.7969 27.6935 34.1999 27.2905 34.1999 26.7935V23.1935C34.1999 22.6965 33.7969 22.2935 33.2999 22.2935H26.9324C26.6479 20.3433 25.4687 18.6379 23.7446 17.6829C25.1715 14.5096 23.7558 10.7803 20.5825 9.3534C17.4092 7.92645 13.6799 9.34215 12.253 12.5155C12.0054 13.0661 11.8382 13.6494 11.7566 14.2477C6.82287 13.714 2.3905 17.2809 1.8568 22.2147C1.85399 22.241 1.85118 22.2673 1.84859 22.2937H0.899996C0.402973 22.2937 0 22.6966 0 23.1937V26.7936C0 27.2907 0.402973 27.6936 0.899996 27.6936H1.85849L3.59998 53.8528C3.63137 54.3265 4.02523 54.6944 4.49998 54.6934H53.0998C53.5968 54.6934 53.9998 54.2904 53.9998 53.7934V35.7935C53.9998 34.3023 52.791 33.0935 51.2998 33.0935ZM28.9376 2.49363H32.3999V7.8936H34.1999V2.49363H35.9998V4.29362H37.7998V2.49363H43.1998V5.19361H44.9998V2.49363H46.7998V7.8936H48.5998V2.49363H52.0621L50.5195 13.2936H30.4802L28.9376 2.49363ZM30.5999 17.7936V15.0936H50.3998V17.7936H30.5999ZM41.3998 19.5936V33.0935H39.5998V19.5936H41.3998ZM32.3999 24.0935V25.8935H18.8999V24.0935H32.3999ZM11.6733 16.0503C11.9207 16.081 12.1663 16.1245 12.4091 16.1808C12.419 16.1808 12.4289 16.1808 12.4388 16.1808C13.4947 16.4292 14.4811 16.9117 15.3251 17.5929L16.4573 16.1934C15.5912 15.4989 14.6045 14.9699 13.5467 14.6328C13.8052 12.1675 16.0132 10.3784 18.4785 10.6368C20.9438 10.8952 22.7329 13.1032 22.4745 15.5685C22.3982 16.2966 22.1449 16.995 21.7368 17.6028C21.4603 18.0157 21.5709 18.5748 21.984 18.8513C22.0471 18.8935 22.1153 18.9276 22.1868 18.9528C23.676 19.4785 24.7806 20.7463 25.0974 22.2935H17.9999C17.5029 22.2935 17.0999 22.6965 17.0999 23.1935V31.2935C17.0999 31.7905 16.697 32.1935 16.1999 32.1935C15.7029 32.1935 15.2999 31.7905 15.2999 31.2935V29.4935C15.2999 28.0023 14.0911 26.7935 12.5999 26.7935C11.1088 26.7935 9.89996 28.0023 9.89996 29.4935V35.7935C9.89996 36.2905 9.49699 36.6935 8.99996 36.6935C8.50294 36.6935 8.09997 36.2905 8.09997 35.7935V23.1935C8.09997 22.6965 7.69699 22.2935 7.19997 22.2935H3.66028C4.14898 18.3567 7.73648 15.5616 11.6733 16.0503ZM1.79999 25.8935V24.0935H6.29997V25.8935H1.79999ZM25.1999 42.9935V52.8934H5.34238L3.66208 27.6935H6.29997V35.7935C6.29997 37.2847 7.50878 38.4935 8.99996 38.4935C10.4911 38.4935 11.7 37.2847 11.7 35.7935V29.4935C11.7 28.9965 12.1029 28.5935 12.5999 28.5935C13.097 28.5935 13.4999 28.9965 13.4999 29.4935V31.2935C13.4999 32.7847 14.7088 33.9935 16.1999 33.9935C17.6911 33.9935 18.8999 32.7847 18.8999 31.2935V27.6935H30.5378L29.6999 40.2935H27.8999C26.4087 40.2935 25.1999 41.5023 25.1999 42.9935ZM52.1998 52.8934H49.4998V48.3934H47.6998V52.8934H44.9998V48.3934H43.1998V52.8934H40.4998V48.3934H38.6998V52.8934H35.9998V48.3934H34.1999V52.8934H31.4999V48.3934H29.6999V52.8934H26.9999V45.6934H52.1998V52.8934ZM52.1998 43.8935H26.9999V42.9935C26.9999 42.4964 27.4029 42.0935 27.8999 42.0935H47.6998C49.191 42.0935 50.3998 40.8847 50.3998 39.3935C50.3998 37.9023 49.191 36.6935 47.6998 36.6935H36.8998C36.4028 36.6935 35.9998 36.2905 35.9998 35.7935C35.9998 35.2965 36.4028 34.8935 36.8998 34.8935H51.2998C51.7968 34.8935 52.1998 35.2965 52.1998 35.7935V43.8935ZM39.5998 40.2935V38.4935H41.3998V40.2935H39.5998ZM43.1998 40.2935V38.4935H47.6998C48.1968 38.4935 48.5998 38.8965 48.5998 39.3935C48.5998 39.8905 48.1968 40.2935 47.6998 40.2935H43.1998Z" fill="#DDA046"/>
<path d="M3.59998 9.69272V7.89273H1.79999V9.69272H0V11.4927H1.79999V13.2927H3.59998V11.4927H5.39998V9.69272H3.59998Z" fill="#DDA046"/>
<path d="M51.2997 25.8927V24.0927H49.4997V25.8927H47.6997V27.6927H49.4997V29.4927H51.2997V27.6927H53.0997V25.8927H51.2997Z" fill="#DDA046"/>
<path d="M17.1 2.49277V0.69278H15.3V2.49277H13.5V4.29276H15.3V6.09276H17.1V4.29276H18.9V2.49277H17.1Z" fill="#DDA046"/>
<path d="M34.1999 9.69272H32.3999V11.4927H34.1999V9.69272Z" fill="#DDA046"/>
</g>
<defs>
<clipPath id="clip0">
<rect width="54" height="54" fill="white" transform="translate(0 0.692627)"/>
</clipPath>
</defs>
</svg>
