<svg width="144" height="144" viewBox="0 0 144 144" fill="none" xmlns="http://www.w3.org/2000/svg">
<g filter="url(#filter0_d)">
<path d="M81.9847 69.7187C81.9847 69.6886 81.978 69.6432 81.9663 69.617C81.9355 69.5056 81.8672 69.4037 81.765 69.3326L78.902 67.3425V65.209C78.902 64.9262 78.6726 64.6969 78.3898 64.6969H75.0961L72.2936 62.7485C72.1185 62.6266 71.8859 62.6261 71.7102 62.7475L68.8897 64.6969H65.6104C65.3275 64.6969 65.0982 64.9262 65.0982 65.209V67.3174L62.2213 69.3057C62.0798 69.4035 62.0032 69.5599 62.0008 69.7197C62.0007 69.7227 62 69.7256 62 69.7287L62.0153 80.8317C62.0155 80.9675 62.0696 81.0977 62.1657 81.1936C62.2618 81.2894 62.3918 81.3431 62.5275 81.3431C62.5277 81.3431 62.5279 81.3431 62.5282 81.3431L81.4885 81.317C81.7713 81.3167 82.0004 81.087 82 80.8042L81.9847 69.7187ZM78.902 68.5901L80.5386 69.7275L78.902 70.8653V68.5901ZM72.0006 63.7923L73.3018 64.6968H70.6919L72.0006 63.7923ZM66.1226 65.7212H77.8776V71.5775L73.9309 74.3213L72.3217 73.0731C72.3192 73.0712 72.3171 73.07 72.3146 73.0682C72.1348 72.9333 71.8804 72.9283 71.6938 73.0731L70.073 74.3304L66.1226 71.6002V65.7212ZM65.0982 68.5626V70.8922L63.4128 69.7274L65.0982 68.5626ZM63.0257 70.7057L69.2237 74.9891L63.0382 79.7869L63.0257 70.7057ZM64.0264 80.3167L72.0078 74.1259L79.9605 80.2948L64.0264 80.3167ZM74.7791 74.9793L80.9617 70.681L80.9742 79.7849L74.7791 74.9793Z" fill="#DDA046"/>
<path d="M75.4677 67.77H68.5327C68.2499 67.77 68.0205 67.9994 68.0205 68.2822C68.0205 68.565 68.2499 68.7944 68.5327 68.7944H75.4677C75.7506 68.7944 75.9799 68.565 75.9799 68.2822C75.9799 67.9994 75.7506 67.77 75.4677 67.77Z" fill="#DDA046"/>
<path d="M75.4677 70.4333H68.5327C68.2499 70.4333 68.0205 70.6627 68.0205 70.9455C68.0205 71.2284 68.2499 71.4577 68.5327 71.4577H75.4677C75.7506 71.4577 75.9799 71.2284 75.9799 70.9455C75.9799 70.6627 75.7506 70.4333 75.4677 70.4333Z" fill="#DDA046"/>
</g>
<defs>
<filter id="filter0_d" x="0" y="0" width="144" height="144" filterUnits="userSpaceOnUse" color-interpolation-filters="sRGB">
<feFlood flood-opacity="0" result="BackgroundImageFix"/>
<feColorMatrix in="SourceAlpha" type="matrix" values="0 0 0 0 0 0 0 0 0 0 0 0 0 0 0 0 0 0 127 0"/>
<feOffset/>
<feGaussianBlur stdDeviation="31"/>
<feColorMatrix type="matrix" values="0 0 0 0 0.829167 0 0 0 0 0.746636 0 0 0 0 0.533431 0 0 0 1 0"/>
<feBlend mode="lighten" in2="BackgroundImageFix" result="effect1_dropShadow"/>
<feBlend mode="normal" in="SourceGraphic" in2="effect1_dropShadow" result="shape"/>
</filter>
</defs>
</svg>
