<svg width="56" height="57" viewBox="0 0 56 57" fill="none" xmlns="http://www.w3.org/2000/svg">
<path d="M50.5308 16.4412H49.3516L33.9237 1.01334C33.4966 0.586228 32.804 0.586228 32.377 1.01334L28.4246 4.96582L12.6173 0.730275C12.0338 0.573759 11.4339 0.92015 11.2776 1.50367L7.2754 16.4412H4.59462C2.06171 16.4412 0.000976562 18.5019 0.000976562 21.0349C0.000976562 21.0956 0.00327344 21.1558 0.00557031 21.216C0.00305469 21.2461 0.000976562 21.2763 0.000976562 21.307V51.2241C0.000976563 54.2394 2.45426 56.6926 5.46962 56.6926H44.6247C44.6416 56.6926 44.6582 56.6916 44.6752 56.6913H50.5307C53.5461 56.6913 55.9992 54.2382 55.9992 51.2227V21.9098C55.9993 18.8943 53.5462 16.4412 50.5308 16.4412ZM49.5536 18.6286H50.5308C52.3401 18.6286 53.8119 20.1006 53.8119 21.9098V30.6754C53.8119 32.1048 52.649 33.2677 51.2196 33.2677H50.0933V28.9095C50.0933 25.9322 47.7014 23.5048 44.7384 23.4437L49.5536 18.6286ZM29.5249 6.95907C29.525 6.95896 29.5251 6.95874 29.5252 6.95863L33.1505 3.3334L47.453 17.6359L41.6835 23.4055H39.6826L42.2997 20.7882C42.7268 20.3611 42.7268 19.6686 42.2997 19.2414C41.4143 18.3561 41.4143 16.9156 42.2997 16.0302C42.7268 15.6031 42.7268 14.9105 42.2997 14.4833L36.3029 8.48671C35.8758 8.0596 35.1832 8.0596 34.756 8.48671C33.8706 9.37221 32.43 9.37221 31.5447 8.48671C31.1176 8.0596 30.4249 8.0596 29.9979 8.48671L15.0792 23.4056H13.0783L29.5249 6.95907ZM26.3061 19.2964C23.8093 19.2964 21.7174 21.0594 21.2071 23.4056H18.1725L30.8673 10.7109C32.2685 11.546 34.0322 11.546 35.4334 10.7109L40.0754 15.3528C39.2404 16.7539 39.2404 18.5179 40.0754 19.919L36.5889 23.4056H31.4051C30.8948 21.0593 28.803 19.2964 26.3061 19.2964ZM29.1264 23.4056H23.4862C23.93 22.2815 25.0265 21.4839 26.3063 21.4839C27.5861 21.4839 28.6825 22.2815 29.1264 23.4056ZM11.9223 21.468L14.8188 10.6581C15.6129 10.6709 16.403 10.4682 17.1105 10.0594C17.8182 9.6509 18.3876 9.07001 18.7749 8.37406L23.6973 9.69301L16.5539 16.8364L11.9223 21.468ZM13.1076 3.12624L26.6385 6.75181L25.4834 7.90703L18.4145 6.01287C18.1341 5.93773 17.8357 5.9771 17.5845 6.12213C17.3333 6.26717 17.15 6.50604 17.075 6.78626C16.9179 7.37207 16.5422 7.86174 16.017 8.16504C15.4916 8.46834 14.8797 8.54884 14.2938 8.39188C13.7105 8.23548 13.1106 8.58176 12.9543 9.16527L9.12897 23.441H7.66423L13.1076 3.12624ZM4.59462 18.6286H6.68904L5.39951 23.441H4.59451C3.26768 23.441 2.18837 22.3616 2.18837 21.0349C2.18848 19.708 3.26801 18.6286 4.59462 18.6286ZM53.8119 51.2227C53.8119 53.032 52.34 54.5038 50.5308 54.5038H48.9976C49.6852 53.5895 50.0933 52.4536 50.0933 51.224V46.8298H50.7495C51.8919 46.8298 52.9492 46.4619 53.8119 45.84V51.2227ZM53.8119 41.58C53.8119 43.2686 52.4381 44.6424 50.7495 44.6424H27.7815C25.2486 44.6424 23.1878 42.5817 23.1878 40.0487C23.1878 37.5157 25.2484 35.4551 27.7815 35.4551H31.0962C31.7003 35.4551 32.1899 34.9653 32.1899 34.3613C32.1899 33.7574 31.7003 33.2676 31.0962 33.2676H27.7815C24.0424 33.2676 21.0004 36.3095 21.0004 40.0486C21.0004 43.7877 24.0424 46.8297 27.7815 46.8297H47.9059V51.2239C47.9059 53.0162 46.4612 54.4778 44.6753 54.505H7.43826V42.1884C7.43826 41.5845 6.94859 41.0947 6.34451 41.0947C5.74043 41.0947 5.25076 41.5845 5.25076 42.1884V54.4971C3.5432 54.3841 2.18837 52.9597 2.18837 51.2241V24.9457C2.8887 25.3781 3.71284 25.6284 4.59451 25.6284H44.6245C46.4338 25.6284 47.9057 27.1004 47.9057 28.9095V33.2677H39.9976C39.3935 33.2677 38.9038 33.7575 38.9038 34.3614C38.9038 34.9654 39.3935 35.4552 39.9976 35.4552H51.2196C52.1748 35.4552 53.0647 35.1725 53.8119 34.6879V41.58Z" fill="#DDA046"/>
</svg>
